<svg width="96" height="68" viewBox="0 0 96 68" fill="none" xmlns="http://www.w3.org/2000/svg">
<rect width="96" height="68" fill="#EBEDF0"/>
<g clip-path="url(#clip0)">
<path d="M65.6426 28.233C66.3564 28.8336 65.9317 29.9981 64.9987 29.9981H63.0004C62.4481 29.9981 62.0004 30.4458 62.0004 30.9981V41.9981C62.0004 43.1027 61.1049 43.9981 60.0004 43.9981H52.0004C50.8958 43.9981 50.0004 43.1027 50.0004 41.9981V31.9981C50.0004 30.8936 49.1049 29.9981 48.0004 29.9981C46.8958 29.9981 46.0004 30.8936 46.0004 31.9981V41.9981C46.0004 43.1027 45.1049 43.9981 44.0004 43.9981H36.0004C34.8958 43.9981 34.0004 43.1027 34.0004 41.9981V30.9981C34.0004 30.4458 33.5527 29.9981 33.0004 29.9981H31.002C30.0691 29.9981 29.6443 28.8336 30.3582 28.233L46.7127 14.4716C47.4569 13.8454 48.5438 13.8454 49.288 14.4716L65.6426 28.233Z" fill="#CCD3D9"/>
<path d="M42.0004 47.9981C42.0004 46.8936 41.1049 45.9981 40.0004 45.9981H36.0004C34.8958 45.9981 34.0004 46.8936 34.0004 47.9981V51.9981C34.0004 53.1027 34.8958 53.9981 36.0004 53.9981H40.0004C41.1049 53.9981 42.0004 53.1027 42.0004 51.9981V47.9981Z" fill="#CCD3D9"/>
<path d="M50.0004 45.9981C51.1049 45.9981 52.0004 46.8936 52.0004 47.9981V51.9981C52.0004 53.1027 51.1049 53.9981 50.0004 53.9981H46.0004C44.8958 53.9981 44.0004 53.1027 44.0004 51.9981V47.9981C44.0004 46.8936 44.8958 45.9981 46.0004 45.9981H50.0004Z" fill="#CCD3D9"/>
<path d="M60.0004 45.9981C61.1049 45.9981 62.0004 46.8936 62.0004 47.9981V51.9981C62.0004 53.1027 61.1049 53.9981 60.0004 53.9981H56.0004C54.8958 53.9981 54.0004 53.1027 54.0004 51.9981V47.9981C54.0004 46.8936 54.8958 45.9981 56.0004 45.9981H60.0004Z" fill="#CCD3D9"/>
</g>
<defs>
<clipPath id="clip0">
<rect width="36.0007" height="39.9962" fill="white" transform="translate(30 14.002)"/>
</clipPath>
</defs>
</svg>
